<svg width="320" height="270" viewBox="0 0 160 135" xmlns="http://www.w3.org/2000/svg" style="stroke-linecap:round;stroke-width:0.5px;stroke-linejoin:round;stroke-miterlimit:1.5;" fill="none" stroke="#171E21"><rect x="0" y="0" width="160" height="135" fill="#283339" stroke="none"/> <defs> <path id="A" d="M0,0h5a5,5,0,0,1,0,10h-5zm0,2h-5m5,6h-5v9m15,-12h5z" /> <path id="N" d="M0,0h5a5,5,0,0,1,0,10h-5zm-.5,2a1,1,0,1,1,-2,0a1,1,0,1,1,2,0m-2,0h-2.5zm2,6a1,1,0,1,1,-2,0a1,1,0,1,1,2,0m-2,0h-2.5v9m20,-12h-2.5a1,1,0,1,1,-2,0a1,1,0,1,1,2,0z" /> <path id="O" d="M0,0c3,0,9,3,10,5c-1,2,-7,5,-10,5c1.5,-2,1.5,-8,0,-10zm0.7,2h-5.7m5.7,6h-5.7v9m15,-12h5" /> <path id="X" d="M0,0c3,0,9,3,10,5c-1,2,-7,5,-10,5c1.5,-2,1.5,-8,0,-10zm-1,10c1.5,-2,1.5,-8,0,-10m0.7,2h-4.7m4.7,6h-4.7v9m15,-12h5" /> </defs><use href="#X" x="0" y="0"/><use href="#N" x="0" y="15"/><use href="#A" x="0" y="30"/><use href="#O" x="0" y="45"/><use href="#N" x="0" y="60"/><use href="#O" x="0" y="75"/><use href="#O" x="0" y="90"/><use href="#A" x="0" y="105"/><use href="#A" x="0" y="120"/><use href="#X" x="0" y="135"/><use href="#A" x="0" y="-15"/><use href="#X" x="20" y="-7.5"/><use href="#A" x="20" y="7.5"/><use href="#A" x="20" y="22.5"/><use href="#A" x="20" y="37.5"/><use href="#X" x="20" y="52.5"/><use href="#O" x="20" y="67.5"/><use href="#O" x="20" y="82.5"/><use href="#A" x="20" y="97.5"/><use href="#A" x="20" y="112.5"/><use href="#X" x="20" y="127.5"/><use href="#N" x="40" y="0"/><use href="#X" x="40" y="15"/><use href="#N" x="40" y="30"/><use href="#N" x="40" y="45"/><use href="#O" x="40" y="60"/><use href="#N" x="40" y="75"/><use href="#O" x="40" y="90"/><use href="#N" x="40" y="105"/><use href="#A" x="40" y="120"/><use href="#N" x="40" y="135"/><use href="#A" x="40" y="-15"/><use href="#O" x="60" y="-7.5"/><use href="#N" x="60" y="7.5"/><use href="#O" x="60" y="22.5"/><use href="#X" x="60" y="37.5"/><use href="#O" x="60" y="52.5"/><use href="#A" x="60" y="67.5"/><use href="#O" x="60" y="82.5"/><use href="#X" x="60" y="97.5"/><use href="#N" x="60" y="112.5"/><use href="#O" x="60" y="127.5"/><use href="#N" x="80" y="0"/><use href="#A" x="80" y="15"/><use href="#N" x="80" y="30"/><use href="#O" x="80" y="45"/><use href="#X" x="80" y="60"/><use href="#N" x="80" y="75"/><use href="#X" x="80" y="90"/><use href="#O" x="80" y="105"/><use href="#A" x="80" y="120"/><use href="#N" x="80" y="135"/><use href="#A" x="80" y="-15"/><use href="#A" x="100" y="-7.5"/><use href="#O" x="100" y="7.5"/><use href="#X" x="100" y="22.5"/><use href="#N" x="100" y="37.5"/><use href="#N" x="100" y="52.5"/><use href="#N" x="100" y="67.5"/><use href="#O" x="100" y="82.5"/><use href="#N" x="100" y="97.5"/><use href="#N" x="100" y="112.5"/><use href="#A" x="100" y="127.5"/><use href="#N" x="120" y="0"/><use href="#A" x="120" y="15"/><use href="#N" x="120" y="30"/><use href="#N" x="120" y="45"/><use href="#X" x="120" y="60"/><use href="#O" x="120" y="75"/><use href="#X" x="120" y="90"/><use href="#O" x="120" y="105"/><use href="#X" x="120" y="120"/><use href="#N" x="120" y="135"/><use href="#X" x="120" y="-15"/><use href="#A" x="140" y="-7.5"/><use href="#X" x="140" y="7.5"/><use href="#X" x="140" y="22.5"/><use href="#O" x="140" y="37.5"/><use href="#A" x="140" y="52.5"/><use href="#O" x="140" y="67.5"/><use href="#X" x="140" y="82.5"/><use href="#N" x="140" y="97.5"/><use href="#O" x="140" y="112.5"/><use href="#A" x="140" y="127.5"/><use href="#X" x="160" y="0"/><use href="#N" x="160" y="15"/><use href="#A" x="160" y="30"/><use href="#O" x="160" y="45"/><use href="#N" x="160" y="60"/><use href="#O" x="160" y="75"/><use href="#O" x="160" y="90"/><use href="#A" x="160" y="105"/><use href="#A" x="160" y="120"/><use href="#X" x="160" y="135"/><use href="#A" x="160" y="-15"/></svg>