<svg viewBox="0 0 1080 1080" xmlns="http://www.w3.org/2000/svg" stroke="none">
  <path fill="#000" d="M0,0h1080v1080h-1080z" />
  <path fill="#0F0" d="M734,801h114q-6,-50,-6,-84q-60,13,-108,17q-5,35,0,66"/>
  <path fill="#0F0" d="M318,801h113c-6,-40,3,-90,15,-114q-40,-20,-80,-50q-45,67,-48,164" />
  <path fill="#0F0" d="M86,573c110,0,100,55,249,37q-86,-88,-90,-148c-32,-20,-60,-52,-112,-52c-120,0,-100,83,-47,163" />
  <circle fill="#000" cx="147" cy="478" r="30" />
  <path fill="#0F0" d="M888,705q48,-13,79,-27q42,31,66,44q-75,21,-145,-17" />  
  <path fill="#835C00" d="M331,435c75,-40,135,-123,273,-123c220,0,270,200,318,277c57,34,57,50,0,67c-57,17,-380,150,-591,-103c-19,-23,-103,-145,0,-118" />
</svg>